<?xml version="1.0" standalone="no"?>
<!DOCTYPE svg PUBLIC "-//W3C//DTD SVG 20010904//EN"
 "http://www.w3.org/TR/2001/REC-SVG-20010904/DTD/svg10.dtd">
<svg version="1.0" xmlns="http://www.w3.org/2000/svg"
 width="575.000000pt" height="575.000000pt" viewBox="0 0 575.000000 575.000000"
 preserveAspectRatio="xMidYMid meet">
<metadata>
Created by potrace 1.11, written by Peter Selinger 2001-2013
</metadata>
<g transform="translate(0.000000,575.000000) scale(0.100000,-0.100000)"
fill="#000000" stroke="none">
<path d="M2930 5737 c-3 -3 -52 -8 -110 -10 -58 -3 -114 -8 -125 -10 -11 -3
-67 -15 -125 -27 -136 -29 -262 -72 -325 -111 -27 -18 -69 -44 -93 -58 -23
-14 -44 -33 -47 -41 -3 -8 -17 -23 -32 -34 -36 -23 -173 -205 -207 -272 -14
-28 -31 -73 -37 -100 -7 -27 -21 -61 -31 -76 -10 -16 -26 -40 -36 -55 -10 -16
-26 -48 -36 -73 -10 -25 -31 -70 -48 -100 -17 -30 -55 -101 -85 -158 -30 -57
-86 -150 -123 -207 -156 -235 -227 -417 -198 -510 19 -63 11 -114 -31 -184
-51 -86 -64 -119 -101 -252 -17 -60 -40 -137 -51 -170 -18 -51 -21 -83 -20
-212 1 -280 10 -455 31 -582 6 -39 12 -145 14 -235 4 -185 7 -203 41 -270 32
-64 108 -137 214 -207 2 -1 -10 -19 -26 -40 -48 -60 -207 -348 -259 -468 -27
-60 -62 -135 -79 -165 -17 -30 -41 -77 -55 -104 -14 -27 -50 -75 -81 -105 -69
-68 -87 -102 -95 -178 -8 -79 -15 -93 -165 -347 -120 -200 -159 -264 -213
-348 l-18 -28 2492 0 c2266 0 2492 1 2486 16 -13 34 -87 137 -229 319 -82 105
-174 232 -205 284 -97 161 -321 489 -367 537 -135 142 -222 252 -315 396 -23
37 -66 84 -103 113 -35 27 -74 63 -87 79 l-24 29 27 47 c39 70 56 154 50 252
-3 46 -12 97 -21 113 -21 43 -110 124 -178 164 -119 69 -107 48 -87 161 4 24
22 51 57 85 28 28 59 59 68 70 9 11 42 45 73 75 36 35 67 77 84 115 16 33 46
96 67 140 38 78 39 83 39 185 l0 105 61 100 c77 127 104 179 149 288 20 49 53
123 73 165 20 43 36 80 34 84 -1 4 7 45 17 90 26 111 21 396 -9 533 -47 217
-93 343 -148 401 -11 11 -31 38 -46 60 -63 95 -97 139 -172 220 -66 72 -109
106 -264 208 -169 112 -266 162 -375 196 -22 7 -44 16 -50 20 -9 8 -39 14
-130 27 -22 3 -51 10 -65 15 -65 26 -335 61 -350 45z"/>
</g>
</svg>
